<svg version="1.1" viewBox="0.0 0.0 872.0 577.0" fill="none" stroke="none" stroke-linecap="square" stroke-miterlimit="10" width="872" height="577" xmlns:xlink="http://www.w3.org/1999/xlink" xmlns="http://www.w3.org/2000/svg"><path fill="#ffffff" d="M0 0L872.0 0L872.0 577.0L0 577.0L0 0Z" fill-rule="nonzero"/><path stroke="#333333" stroke-width="1.0" stroke-linecap="butt" d="M111.5 72.5L111.5 478.5" fill-rule="nonzero"/><path stroke="#cccccc" stroke-width="1.0" stroke-linecap="butt" d="M237.5 72.5L237.5 478.5" fill-rule="nonzero"/><path stroke="#cccccc" stroke-width="1.0" stroke-linecap="butt" d="M364.5 72.5L364.5 478.5" fill-rule="nonzero"/><path stroke="#cccccc" stroke-width="1.0" stroke-linecap="butt" d="M490.5 72.5L490.5 478.5" fill-rule="nonzero"/><path stroke="#cccccc" stroke-width="1.0" stroke-linecap="butt" d="M616.5 72.5L616.5 478.5" fill-rule="nonzero"/><path stroke="#cccccc" stroke-width="1.0" stroke-linecap="butt" d="M742.5 72.5L742.5 478.5" fill-rule="nonzero"/><clipPath id="id_0"><path d="M111.85 72.083336L742.41223 72.083336L742.41223 478.15L111.85 478.15L111.85 72.083336Z" clip-rule="nonzero"/></clipPath><path stroke="#000000" stroke-width="0.0" stroke-linecap="butt" stroke-opacity="0.0" clip-path="url(#id_0)" d="M112.0 153.0L112.0 115.0L227.0 115.0C228.10457 115.0 229.0 115.89543 229.0 117.0L229.0 151.0C229.0 152.10457 228.10457 153.0 227.0 153.0Z" fill-rule="nonzero"/><path fill="#e4517f" clip-path="url(#id_0)" d="M112.0 153.0L112.0 115.0L227.0 115.0C228.10457 115.0 229.0 115.89543 229.0 117.0L229.0 151.0C229.0 152.10457 228.10457 153.0 227.0 153.0Z" fill-rule="nonzero"/><path stroke="#000000" stroke-width="0.0" stroke-linecap="butt" stroke-opacity="0.0" clip-path="url(#id_0)" d="M112.0 274.0L112.0 236.0L232.0 236.0C233.10457 236.0 234.0 236.89543 234.0 238.0L234.0 272.0C234.0 273.10458 233.10457 274.0 232.0 274.0Z" fill-rule="nonzero"/><path fill="#e4517f" clip-path="url(#id_0)" d="M112.0 274.0L112.0 236.0L232.0 236.0C233.10457 236.0 234.0 236.89543 234.0 238.0L234.0 272.0C234.0 273.10458 233.10457 274.0 232.0 274.0Z" fill-rule="nonzero"/><path stroke="#000000" stroke-width="0.0" stroke-linecap="butt" stroke-opacity="0.0" clip-path="url(#id_0)" d="M112.0 395.0L112.0 357.0L233.0 357.0C234.10457 357.0 235.0 357.89542 235.0 359.0L235.0 393.0C235.0 394.10458 234.10457 395.0 233.0 395.0Z" fill-rule="nonzero"/><path fill="#e4517f" clip-path="url(#id_0)" d="M112.0 395.0L112.0 357.0L233.0 357.0C234.10457 357.0 235.0 357.89542 235.0 359.0L235.0 393.0C235.0 394.10458 234.10457 395.0 233.0 395.0Z" fill-rule="nonzero"/><path stroke="#000000" stroke-width="0.0" stroke-linecap="butt" stroke-opacity="0.0" clip-path="url(#id_0)" d="M112.0 192.0L112.0 154.0L627.0 154.0C628.10455 154.0 629.0 154.89543 629.0 156.0L629.0 190.0C629.0 191.10457 628.10455 192.0 627.0 192.0Z" fill-rule="nonzero"/><path fill="#4b4df1" clip-path="url(#id_0)" d="M112.0 192.0L112.0 154.0L627.0 154.0C628.10455 154.0 629.0 154.89543 629.0 156.0L629.0 190.0C629.0 191.10457 628.10455 192.0 627.0 192.0Z" fill-rule="nonzero"/><path stroke="#000000" stroke-width="0.0" stroke-linecap="butt" stroke-opacity="0.0" clip-path="url(#id_0)" d="M112.0 313.0L112.0 275.0L588.0 275.0C589.10455 275.0 590.0 275.89542 590.0 277.0L590.0 311.0C590.0 312.10458 589.10455 313.0 588.0 313.0Z" fill-rule="nonzero"/><path fill="#4b4df1" clip-path="url(#id_0)" d="M112.0 313.0L112.0 275.0L588.0 275.0C589.10455 275.0 590.0 275.89542 590.0 277.0L590.0 311.0C590.0 312.10458 589.10455 313.0 588.0 313.0Z" fill-rule="nonzero"/><path stroke="#000000" stroke-width="0.0" stroke-linecap="butt" stroke-opacity="0.0" clip-path="url(#id_0)" d="M112.0 434.0L112.0 396.0L614.0 396.0C615.10455 396.0 616.0 396.89542 616.0 398.0L616.0 432.0C616.0 433.10458 615.10455 434.0 614.0 434.0Z" fill-rule="nonzero"/><path fill="#4b4df1" clip-path="url(#id_0)" d="M112.0 434.0L112.0 396.0L614.0 396.0C615.10455 396.0 616.0 396.89542 616.0 398.0L616.0 432.0C616.0 433.10458 615.10455 434.0 614.0 434.0Z" fill-rule="nonzero"/><path fill="#666666" d="M349.80298 537.97815L346.80298 537.97815L346.80298 543.15L345.11548 543.15L345.11548 530.35315L349.34985 530.35315Q351.5061 530.35315 352.66235 531.3375Q353.83423 532.3219 353.83423 534.1969Q353.83423 535.4 353.17798 536.29065Q352.53735 537.16565 351.39673 537.6188L354.39673 543.04065L354.39673 543.15L352.58423 543.15L349.80298 537.97815ZM346.80298 536.5875L349.39673 536.5875Q350.64673 536.5875 351.39673 535.9469Q352.14673 535.29065 352.14673 534.1969Q352.14673 533.0094 351.42798 532.3844Q350.72485 531.7438 349.3811 531.7438L346.80298 531.7438L346.80298 536.5875ZM359.80298 543.3219Q357.8811 543.3219 356.66235 542.0563Q355.4436 540.79065 355.4436 538.66565L355.4436 538.35315Q355.4436 536.9469 355.99048 535.8375Q356.53735 534.72815 357.5061 534.10315Q358.47485 533.4625 359.59985 533.4625Q361.45923 533.4625 362.49048 534.6813Q363.52173 535.9 363.52173 538.1813L363.52173 538.85315L357.0686 538.85315Q357.11548 540.2594 357.89673 541.1344Q358.67798 541.9938 359.89673 541.9938Q360.7561 541.9938 361.34985 541.65Q361.95923 541.29065 362.39673 540.7125L363.39673 541.4938Q362.1936 543.3219 359.80298 543.3219ZM359.59985 534.8063Q358.61548 534.8063 357.9436 535.525Q357.28735 536.22815 357.1311 537.525L361.89673 537.525L361.89673 537.4Q361.8186 536.16565 361.22485 535.4938Q360.6311 534.8063 359.59985 534.8063ZM365.45923 538.3219Q365.45923 536.0719 366.49048 534.775Q367.52173 533.4625 369.2561 533.4625Q370.9436 533.4625 371.91235 534.60315L371.99048 533.6344L373.47485 533.6344L373.47485 546.8063L371.84985 546.8063L371.84985 542.275Q370.86548 543.3219 369.24048 543.3219Q367.52173 543.3219 366.49048 541.9938Q365.45923 540.65 365.45923 538.4313L365.45923 538.3219ZM367.09985 538.4938Q367.09985 540.1344 367.78735 541.0719Q368.47485 541.9938 369.64673 541.9938Q371.08423 541.9938 371.84985 540.7125L371.84985 536.0563Q371.08423 534.8063 369.66235 534.8063Q368.47485 534.8063 367.78735 535.7438Q367.09985 536.66565 367.09985 538.4938ZM381.74048 542.2125Q380.78735 543.3219 378.9436 543.3219Q377.42798 543.3219 376.6311 542.4469Q375.83423 541.5563 375.83423 539.8219L375.83423 533.6344L377.45923 533.6344L377.45923 539.79065Q377.45923 541.9469 379.20923 541.9469Q381.0686 541.9469 381.6936 540.5563L381.6936 533.6344L383.3186 533.6344L383.3186 543.15L381.77173 543.15L381.74048 542.2125ZM389.80298 543.3219Q387.8811 543.3219 386.66235 542.0563Q385.4436 540.79065 385.4436 538.66565L385.4436 538.35315Q385.4436 536.9469 385.99048 535.8375Q386.53735 534.72815 387.5061 534.10315Q388.47485 533.4625 389.59985 533.4625Q391.45923 533.4625 392.49048 534.6813Q393.52173 535.9 393.52173 538.1813L393.52173 538.85315L387.0686 538.85315Q387.11548 540.2594 387.89673 541.1344Q388.67798 541.9938 389.89673 541.9938Q390.7561 541.9938 391.34985 541.65Q391.95923 541.29065 392.39673 540.7125L393.39673 541.4938Q392.1936 543.3219 389.80298 543.3219ZM389.59985 534.8063Q388.61548 534.8063 387.9436 535.525Q387.28735 536.22815 387.1311 537.525L391.89673 537.525L391.89673 537.4Q391.8186 536.16565 391.22485 535.4938Q390.6311 534.8063 389.59985 534.8063ZM401.39673 540.6344Q401.39673 539.9625 400.89673 539.60315Q400.41235 539.2438 399.17798 538.97815Q397.9436 538.7125 397.20923 538.35315Q396.49048 537.97815 396.1311 537.4625Q395.78735 536.9469 395.78735 536.2438Q395.78735 535.0875 396.77173 534.275Q397.77173 533.4625 399.30298 533.4625Q400.92798 533.4625 401.92798 534.3063Q402.9436 535.1344 402.9436 536.4313L401.30298 536.4313Q401.30298 535.7594 400.72485 535.29065Q400.16235 534.8063 399.30298 534.8063Q398.41235 534.8063 397.91235 535.1969Q397.41235 535.5719 397.41235 536.1969Q397.41235 536.79065 397.8811 537.0875Q398.34985 537.3844 399.5686 537.66565Q400.78735 537.9313 401.53735 538.3063Q402.30298 538.6813 402.66235 539.2125Q403.02173 539.7438 403.02173 540.5094Q403.02173 541.79065 402.0061 542.5563Q400.99048 543.3219 399.36548 543.3219Q398.22485 543.3219 397.33423 542.91565Q396.45923 542.5094 395.95923 541.79065Q395.45923 541.0719 395.45923 540.22815L397.09985 540.22815Q397.1311 541.04065 397.74048 541.525Q398.36548 541.9938 399.36548 541.9938Q400.28735 541.9938 400.83423 541.6188Q401.39673 541.2438 401.39673 540.6344ZM407.0686 531.3375L407.0686 533.6344L408.84985 533.6344L408.84985 534.9L407.0686 534.9L407.0686 540.79065Q407.0686 541.3688 407.30298 541.65Q407.53735 541.9313 408.11548 541.9313Q408.39673 541.9313 408.8811 541.8375L408.8811 543.15Q408.24048 543.3219 407.64673 543.3219Q406.55298 543.3219 405.99048 542.66565Q405.4436 542.0094 405.4436 540.79065L405.4436 534.9L403.70923 534.9L403.70923 533.6344L405.4436 533.6344L405.4436 531.3375L407.0686 531.3375ZM416.39673 540.6344Q416.39673 539.9625 415.89673 539.60315Q415.41235 539.2438 414.17798 538.97815Q412.9436 538.7125 412.20923 538.35315Q411.49048 537.97815 411.1311 537.4625Q410.78735 536.9469 410.78735 536.2438Q410.78735 535.0875 411.77173 534.275Q412.77173 533.4625 414.30298 533.4625Q415.92798 533.4625 416.92798 534.3063Q417.9436 535.1344 417.9436 536.4313L416.30298 536.4313Q416.30298 535.7594 415.72485 535.29065Q415.16235 534.8063 414.30298 534.8063Q413.41235 534.8063 412.91235 535.1969Q412.41235 535.5719 412.41235 536.1969Q412.41235 536.79065 412.8811 537.0875Q413.34985 537.3844 414.5686 537.66565Q415.78735 537.9313 416.53735 538.3063Q417.30298 538.6813 417.66235 539.2125Q418.02173 539.7438 418.02173 540.5094Q418.02173 541.79065 417.0061 542.5563Q415.99048 543.3219 414.36548 543.3219Q413.22485 543.3219 412.33423 542.91565Q411.45923 542.5094 410.95923 541.79065Q410.45923 541.0719 410.45923 540.22815L412.09985 540.22815Q412.1311 541.04065 412.74048 541.525Q413.36548 541.9938 414.36548 541.9938Q415.28735 541.9938 415.83423 541.6188Q416.39673 541.2438 416.39673 540.6344ZM431.89673 538.4938Q431.89673 540.66565 430.89673 541.9938Q429.91235 543.3219 428.20923 543.3219Q426.47485 543.3219 425.49048 542.22815L425.49048 546.8063L423.86548 546.8063L423.86548 533.6344L425.34985 533.6344L425.42798 534.6969Q426.41235 533.4625 428.1936 533.4625Q429.89673 533.4625 430.89673 534.7594Q431.89673 536.04065 431.89673 538.35315L431.89673 538.4938ZM430.27173 538.3219Q430.27173 536.7125 429.58423 535.775Q428.89673 534.8375 427.70923 534.8375Q426.22485 534.8375 425.49048 536.15L425.49048 540.6969Q426.22485 541.9938 427.72485 541.9938Q428.89673 541.9938 429.58423 541.0719Q430.27173 540.15 430.27173 538.3219ZM437.80298 543.3219Q435.8811 543.3219 434.66235 542.0563Q433.4436 540.79065 433.4436 538.66565L433.4436 538.35315Q433.4436 536.9469 433.99048 535.8375Q434.53735 534.72815 435.5061 534.10315Q436.47485 533.4625 437.59985 533.4625Q439.45923 533.4625 440.49048 534.6813Q441.52173 535.9 441.52173 538.1813L441.52173 538.85315L435.0686 538.85315Q435.11548 540.2594 435.89673 541.1344Q436.67798 541.9938 437.89673 541.9938Q438.7561 541.9938 439.34985 541.65Q439.95923 541.29065 440.39673 540.7125L441.39673 541.4938Q440.1936 543.3219 437.80298 543.3219ZM437.59985 534.8063Q436.61548 534.8063 435.9436 535.525Q435.28735 536.22815 435.1311 537.525L439.89673 537.525L439.89673 537.4Q439.8186 536.16565 439.22485 535.4938Q438.6311 534.8063 437.59985 534.8063ZM448.45923 535.10315Q448.08423 535.04065 447.66235 535.04065Q446.05298 535.04065 445.49048 536.4L445.49048 543.15L443.86548 543.15L443.86548 533.6344L445.4436 533.6344L445.47485 534.7438Q446.27173 533.4625 447.74048 533.4625Q448.20923 533.4625 448.45923 533.5875L448.45923 535.10315ZM459.39673 540.6344Q459.39673 539.9625 458.89673 539.60315Q458.41235 539.2438 457.17798 538.97815Q455.9436 538.7125 455.20923 538.35315Q454.49048 537.97815 454.1311 537.4625Q453.78735 536.9469 453.78735 536.2438Q453.78735 535.0875 454.77173 534.275Q455.77173 533.4625 457.30298 533.4625Q458.92798 533.4625 459.92798 534.3063Q460.9436 535.1344 460.9436 536.4313L459.30298 536.4313Q459.30298 535.7594 458.72485 535.29065Q458.16235 534.8063 457.30298 534.8063Q456.41235 534.8063 455.91235 535.1969Q455.41235 535.5719 455.41235 536.1969Q455.41235 536.79065 455.8811 537.0875Q456.34985 537.3844 457.5686 537.66565Q458.78735 537.9313 459.53735 538.3063Q460.30298 538.6813 460.66235 539.2125Q461.02173 539.7438 461.02173 540.5094Q461.02173 541.79065 460.0061 542.5563Q458.99048 543.3219 457.36548 543.3219Q456.22485 543.3219 455.33423 542.91565Q454.45923 542.5094 453.95923 541.79065Q453.45923 541.0719 453.45923 540.22815L455.09985 540.22815Q455.1311 541.04065 455.74048 541.525Q456.36548 541.9938 457.36548 541.9938Q458.28735 541.9938 458.83423 541.6188Q459.39673 541.2438 459.39673 540.6344ZM466.80298 543.3219Q464.8811 543.3219 463.66235 542.0563Q462.4436 540.79065 462.4436 538.66565L462.4436 538.35315Q462.4436 536.9469 462.99048 535.8375Q463.53735 534.72815 464.5061 534.10315Q465.47485 533.4625 466.59985 533.4625Q468.45923 533.4625 469.49048 534.6813Q470.52173 535.9 470.52173 538.1813L470.52173 538.85315L464.0686 538.85315Q464.11548 540.2594 464.89673 541.1344Q465.67798 541.9938 466.89673 541.9938Q467.7561 541.9938 468.34985 541.65Q468.95923 541.29065 469.39673 540.7125L470.39673 541.4938Q469.1936 543.3219 466.80298 543.3219ZM466.59985 534.8063Q465.61548 534.8063 464.9436 535.525Q464.28735 536.22815 464.1311 537.525L468.89673 537.525L468.89673 537.4Q468.8186 536.16565 468.22485 535.4938Q467.6311 534.8063 466.59985 534.8063ZM476.67798 541.9938Q477.55298 541.9938 478.1936 541.47815Q478.84985 540.9469 478.91235 540.15L480.45923 540.15Q480.41235 540.9625 479.89673 541.7125Q479.3811 542.4469 478.5061 542.8844Q477.64673 543.3219 476.67798 543.3219Q474.74048 543.3219 473.58423 542.025Q472.4436 540.72815 472.4436 538.47815L472.4436 538.2125Q472.4436 536.8219 472.9436 535.7438Q473.45923 534.66565 474.41235 534.0719Q475.36548 533.4625 476.66235 533.4625Q478.27173 533.4625 479.3186 534.4313Q480.3811 535.3844 480.45923 536.91565L478.91235 536.91565Q478.84985 535.9938 478.20923 535.4Q477.58423 534.8063 476.66235 534.8063Q475.42798 534.8063 474.74048 535.6969Q474.0686 536.5875 474.0686 538.275L474.0686 538.5719Q474.0686 540.22815 474.74048 541.1188Q475.41235 541.9938 476.67798 541.9938ZM481.42798 538.3063Q481.42798 536.91565 481.97485 535.8063Q482.53735 534.6813 483.5061 534.0719Q484.49048 533.4625 485.74048 533.4625Q487.6936 533.4625 488.8811 534.8063Q490.08423 536.15 490.08423 538.3844L490.08423 538.4938Q490.08423 539.8844 489.55298 540.9938Q489.02173 542.0875 488.03735 542.7125Q487.05298 543.3219 485.77173 543.3219Q483.83423 543.3219 482.6311 541.97815Q481.42798 540.6344 481.42798 538.41565L481.42798 538.3063ZM483.0686 538.4938Q483.0686 540.0875 483.80298 541.04065Q484.53735 541.9938 485.77173 541.9938Q487.0061 541.9938 487.72485 541.025Q488.45923 540.0563 488.45923 538.3063Q488.45923 536.7438 487.70923 535.775Q486.97485 534.8063 485.74048 534.8063Q484.53735 534.8063 483.80298 535.7594Q483.0686 536.7125 483.0686 538.4938ZM493.39673 533.6344L493.45923 534.8375Q494.53735 533.4625 496.30298 533.4625Q499.3186 533.4625 499.33423 536.8688L499.33423 543.15L497.70923 543.15L497.70923 536.85315Q497.70923 535.8219 497.24048 535.3375Q496.78735 534.8375 495.80298 534.8375Q495.02173 534.8375 494.41235 535.2594Q493.8186 535.6813 493.49048 536.3688L493.49048 543.15L491.86548 543.15L491.86548 533.6344L493.39673 533.6344ZM501.45923 538.3219Q501.45923 536.1344 502.49048 534.8063Q503.53735 533.4625 505.22485 533.4625Q506.89673 533.4625 507.86548 534.60315L507.86548 529.65L509.49048 529.65L509.49048 543.15L507.99048 543.15L507.91235 542.1344Q506.9436 543.3219 505.20923 543.3219Q503.55298 543.3219 502.5061 541.97815Q501.45923 540.6188 501.45923 538.4313L501.45923 538.3219ZM503.09985 538.4938Q503.09985 540.1188 503.7561 541.04065Q504.42798 541.9469 505.59985 541.9469Q507.14673 541.9469 507.86548 540.5563L507.86548 536.1813Q507.1311 534.8375 505.6311 534.8375Q504.42798 534.8375 503.7561 535.775Q503.09985 536.6969 503.09985 538.4938Z" fill-rule="nonzero"/><path fill="#666666" d="M40.67815 377.9448L40.67815 380.9448L45.850025 380.9448L45.850025 382.6323L33.05315 382.6323L33.05315 378.39792Q33.05315 376.24167 34.037525 375.08542Q35.0219 373.91354 36.8969 373.91354Q38.100025 373.91354 38.99065 374.5698Q39.86565 375.21042 40.318775 376.35104L45.74065 373.35104L45.850025 373.35104L45.850025 375.16354L40.67815 377.9448ZM39.287525 380.9448L39.287525 378.35104Q39.287525 377.10104 38.6469 376.35104Q37.99065 375.60104 36.8969 375.60104Q35.7094 375.60104 35.0844 376.3198Q34.443775 377.02292 34.443775 378.36667L34.443775 380.9448L39.287525 380.9448ZM46.0219 367.9448Q46.0219 369.86667 44.756275 371.08542Q43.49065 372.30417 41.36565 372.30417L41.05315 372.30417Q39.6469 372.30417 38.537525 371.7573Q37.42815 371.21042 36.80315 370.24167Q36.162525 369.27292 36.162525 368.14792Q36.162525 366.28854 37.381275 365.2573Q38.600025 364.22604 40.881275 364.22604L41.55315 364.22604L41.55315 370.67917Q42.9594 370.6323 43.8344 369.85104Q44.693775 369.0698 44.693775 367.85104Q44.693775 366.99167 44.350025 366.39792Q43.99065 365.78854 43.412525 365.35104L44.193775 364.35104Q46.0219 365.55417 46.0219 367.9448ZM37.506275 368.14792Q37.506275 369.1323 38.225025 369.80417Q38.92815 370.46042 40.225025 370.61667L40.225025 365.85104L40.100025 365.85104Q38.86565 365.92917 38.193775 366.52292Q37.506275 367.11667 37.506275 368.14792ZM41.0219 362.28854Q38.7719 362.28854 37.475025 361.2573Q36.162525 360.22604 36.162525 358.49167Q36.162525 356.80417 37.30315 355.83542L36.3344 355.7573L36.3344 354.27292L49.506275 354.27292L49.506275 355.89792L44.975025 355.89792Q46.0219 356.8823 46.0219 358.5073Q46.0219 360.22604 44.693775 361.2573Q43.350025 362.28854 41.131275 362.28854L41.0219 362.28854ZM41.193775 360.64792Q42.8344 360.64792 43.7719 359.96042Q44.693775 359.27292 44.693775 358.10104Q44.693775 356.66354 43.412525 355.89792L38.756275 355.89792Q37.506275 356.66354 37.506275 358.08542Q37.506275 359.27292 38.443775 359.96042Q39.36565 360.64792 41.193775 360.64792ZM44.912525 346.0073Q46.0219 346.96042 46.0219 348.80417Q46.0219 350.3198 45.1469 351.11667Q44.256275 351.91354 42.5219 351.91354L36.3344 351.91354L36.3344 350.28854L42.49065 350.28854Q44.6469 350.28854 44.6469 348.53854Q44.6469 346.67917 43.256275 346.05417L36.3344 346.05417L36.3344 344.42917L45.850025 344.42917L45.850025 345.97604L44.912525 346.0073ZM46.0219 337.9448Q46.0219 339.86667 44.756275 341.08542Q43.49065 342.30417 41.36565 342.30417L41.05315 342.30417Q39.6469 342.30417 38.537525 341.7573Q37.42815 341.21042 36.80315 340.24167Q36.162525 339.27292 36.162525 338.14792Q36.162525 336.28854 37.381275 335.2573Q38.600025 334.22604 40.881275 334.22604L41.55315 334.22604L41.55315 340.67917Q42.9594 340.6323 43.8344 339.85104Q44.693775 339.0698 44.693775 337.85104Q44.693775 336.99167 44.350025 336.39792Q43.99065 335.78854 43.412525 335.35104L44.193775 334.35104Q46.0219 335.55417 46.0219 337.9448ZM37.506275 338.14792Q37.506275 339.1323 38.225025 339.80417Q38.92815 340.46042 40.225025 340.61667L40.225025 335.85104L40.100025 335.85104Q38.86565 335.92917 38.193775 336.52292Q37.506275 337.11667 37.506275 338.14792ZM43.3344 326.35104Q42.662525 326.35104 42.30315 326.85104Q41.943775 327.33542 41.67815 328.5698Q41.412525 329.80417 41.05315 330.53854Q40.67815 331.2573 40.162525 331.61667Q39.6469 331.96042 38.943775 331.96042Q37.787525 331.96042 36.975025 330.97604Q36.162525 329.97604 36.162525 328.4448Q36.162525 326.8198 37.006275 325.8198Q37.8344 324.80417 39.131275 324.80417L39.131275 326.4448Q38.4594 326.4448 37.99065 327.02292Q37.506275 327.58542 37.506275 328.4448Q37.506275 329.33542 37.8969 329.83542Q38.2719 330.33542 38.8969 330.33542Q39.49065 330.33542 39.787525 329.86667Q40.0844 329.39792 40.36565 328.17917Q40.631275 326.96042 41.006275 326.21042Q41.381275 325.4448 41.912525 325.08542Q42.443775 324.72604 43.2094 324.72604Q44.49065 324.72604 45.256275 325.74167Q46.0219 326.7573 46.0219 328.3823Q46.0219 329.52292 45.61565 330.41354Q45.2094 331.28854 44.49065 331.78854Q43.7719 332.28854 42.92815 332.28854L42.92815 330.64792Q43.74065 330.61667 44.225025 330.0073Q44.693775 329.3823 44.693775 328.3823Q44.693775 327.46042 44.318775 326.91354Q43.943775 326.35104 43.3344 326.35104ZM34.037525 320.67917L36.3344 320.67917L36.3344 318.89792L37.600025 318.89792L37.600025 320.67917L43.49065 320.67917Q44.068775 320.67917 44.350025 320.4448Q44.631275 320.21042 44.631275 319.6323Q44.631275 319.35104 44.537525 318.86667L45.850025 318.86667Q46.0219 319.5073 46.0219 320.10104Q46.0219 321.1948 45.36565 321.7573Q44.7094 322.30417 43.49065 322.30417L37.600025 322.30417L37.600025 324.03854L36.3344 324.03854L36.3344 322.30417L34.037525 322.30417L34.037525 320.67917ZM43.3344 311.35104Q42.662525 311.35104 42.30315 311.85104Q41.943775 312.33542 41.67815 313.5698Q41.412525 314.80417 41.05315 315.53854Q40.67815 316.2573 40.162525 316.61667Q39.6469 316.96042 38.943775 316.96042Q37.787525 316.96042 36.975025 315.97604Q36.162525 314.97604 36.162525 313.4448Q36.162525 311.8198 37.006275 310.8198Q37.8344 309.80417 39.131275 309.80417L39.131275 311.4448Q38.4594 311.4448 37.99065 312.02292Q37.506275 312.58542 37.506275 313.4448Q37.506275 314.33542 37.8969 314.83542Q38.2719 315.33542 38.8969 315.33542Q39.49065 315.33542 39.787525 314.86667Q40.0844 314.39792 40.36565 313.17917Q40.631275 311.96042 41.006275 311.21042Q41.381275 310.4448 41.912525 310.08542Q42.443775 309.72604 43.2094 309.72604Q44.49065 309.72604 45.256275 310.74167Q46.0219 311.7573 46.0219 313.3823Q46.0219 314.52292 45.61565 315.41354Q45.2094 316.28854 44.49065 316.78854Q43.7719 317.28854 42.92815 317.28854L42.92815 315.64792Q43.74065 315.61667 44.225025 315.0073Q44.693775 314.3823 44.693775 313.3823Q44.693775 312.46042 44.318775 311.91354Q43.943775 311.35104 43.3344 311.35104ZM41.193775 295.85104Q43.36565 295.85104 44.693775 296.85104Q46.0219 297.83542 46.0219 299.53854Q46.0219 301.27292 44.92815 302.2573L49.506275 302.2573L49.506275 303.8823L36.3344 303.8823L36.3344 302.39792L37.3969 302.3198Q36.162525 301.33542 36.162525 299.55417Q36.162525 297.85104 37.4594 296.85104Q38.74065 295.85104 41.05315 295.85104L41.193775 295.85104ZM41.0219 297.47604Q39.412525 297.47604 38.475025 298.16354Q37.537525 298.85104 37.537525 300.03854Q37.537525 301.52292 38.850025 302.2573L43.3969 302.2573Q44.693775 301.52292 44.693775 300.02292Q44.693775 298.85104 43.7719 298.16354Q42.850025 297.47604 41.0219 297.47604ZM46.0219 289.9448Q46.0219 291.86667 44.756275 293.08542Q43.49065 294.30417 41.36565 294.30417L41.05315 294.30417Q39.6469 294.30417 38.537525 293.7573Q37.42815 293.21042 36.80315 292.24167Q36.162525 291.27292 36.162525 290.14792Q36.162525 288.28854 37.381275 287.2573Q38.600025 286.22604 40.881275 286.22604L41.55315 286.22604L41.55315 292.67917Q42.9594 292.6323 43.8344 291.85104Q44.693775 291.0698 44.693775 289.85104Q44.693775 288.99167 44.350025 288.39792Q43.99065 287.78854 43.412525 287.35104L44.193775 286.35104Q46.0219 287.55417 46.0219 289.9448ZM37.506275 290.14792Q37.506275 291.1323 38.225025 291.80417Q38.92815 292.46042 40.225025 292.61667L40.225025 287.85104L40.100025 287.85104Q38.86565 287.92917 38.193775 288.52292Q37.506275 289.11667 37.506275 290.14792ZM37.80315 279.28854Q37.74065 279.66354 37.74065 280.08542Q37.74065 281.6948 39.100025 282.2573L45.850025 282.2573L45.850025 283.8823L36.3344 283.8823L36.3344 282.30417L37.443775 282.27292Q36.162525 281.47604 36.162525 280.0073Q36.162525 279.53854 36.287525 279.28854L37.80315 279.28854ZM44.693775 270.0698Q44.693775 269.1948 44.17815 268.55417Q43.6469 267.89792 42.850025 267.83542L42.850025 266.28854Q43.662525 266.33542 44.412525 266.85104Q45.1469 267.36667 45.5844 268.24167Q46.0219 269.10104 46.0219 270.0698Q46.0219 272.0073 44.725025 273.16354Q43.42815 274.30417 41.17815 274.30417L40.912525 274.30417Q39.5219 274.30417 38.443775 273.80417Q37.36565 273.28854 36.7719 272.33542Q36.162525 271.3823 36.162525 270.08542Q36.162525 268.47604 37.131275 267.42917Q38.0844 266.36667 39.61565 266.28854L39.61565 267.83542Q38.693775 267.89792 38.100025 268.53854Q37.506275 269.16354 37.506275 270.08542Q37.506275 271.3198 38.3969 272.0073Q39.287525 272.67917 40.975025 272.67917L41.2719 272.67917Q42.92815 272.67917 43.818775 272.0073Q44.693775 271.33542 44.693775 270.0698ZM41.006275 265.3198Q39.61565 265.3198 38.506275 264.77292Q37.381275 264.21042 36.7719 263.24167Q36.162525 262.2573 36.162525 261.0073Q36.162525 259.05417 37.506275 257.86667Q38.850025 256.66354 41.0844 256.66354L41.193775 256.66354Q42.5844 256.66354 43.693775 257.1948Q44.787525 257.72604 45.412525 258.71042Q46.0219 259.6948 46.0219 260.97604Q46.0219 262.91354 44.67815 264.11667Q43.3344 265.3198 41.11565 265.3198L41.006275 265.3198ZM41.193775 263.67917Q42.787525 263.67917 43.74065 262.9448Q44.693775 262.21042 44.693775 260.97604Q44.693775 259.74167 43.725025 259.02292Q42.756275 258.28854 41.006275 258.28854Q39.443775 258.28854 38.475025 259.03854Q37.506275 259.77292 37.506275 261.0073Q37.506275 262.21042 38.4594 262.9448Q39.412525 263.67917 41.193775 263.67917ZM36.3344 253.35104L37.537525 253.28854Q36.162525 252.21042 36.162525 250.4448Q36.162525 247.42917 39.568775 247.41354L45.850025 247.41354L45.850025 249.03854L39.55315 249.03854Q38.5219 249.03854 38.037525 249.5073Q37.537525 249.96042 37.537525 250.9448Q37.537525 251.72604 37.9594 252.33542Q38.381275 252.92917 39.068775 253.2573L45.850025 253.2573L45.850025 254.8823L36.3344 254.8823L36.3344 253.35104ZM36.3344 243.35104L37.537525 243.28854Q36.162525 242.21042 36.162525 240.4448Q36.162525 237.42917 39.568775 237.41354L45.850025 237.41354L45.850025 239.03854L39.55315 239.03854Q38.5219 239.03854 38.037525 239.5073Q37.537525 239.96042 37.537525 240.9448Q37.537525 241.72604 37.9594 242.33542Q38.381275 242.92917 39.068775 243.2573L45.850025 243.2573L45.850025 244.8823L36.3344 244.8823L36.3344 243.35104ZM46.0219 230.9448Q46.0219 232.86667 44.756275 234.08542Q43.49065 235.30417 41.36565 235.30417L41.05315 235.30417Q39.6469 235.30417 38.537525 234.7573Q37.42815 234.21042 36.80315 233.24167Q36.162525 232.27292 36.162525 231.14792Q36.162525 229.28854 37.381275 228.2573Q38.600025 227.22604 40.881275 227.22604L41.55315 227.22604L41.55315 233.67917Q42.9594 233.6323 43.8344 232.85104Q44.693775 232.0698 44.693775 230.85104Q44.693775 229.99167 44.350025 229.39792Q43.99065 228.78854 43.412525 228.35104L44.193775 227.35104Q46.0219 228.55417 46.0219 230.9448ZM37.506275 231.14792Q37.506275 232.1323 38.225025 232.80417Q38.92815 233.46042 40.225025 233.61667L40.225025 228.85104L40.100025 228.85104Q38.86565 228.92917 38.193775 229.52292Q37.506275 230.11667 37.506275 231.14792ZM44.693775 221.0698Q44.693775 220.1948 44.17815 219.55417Q43.6469 218.89792 42.850025 218.83542L42.850025 217.28854Q43.662525 217.33542 44.412525 217.85104Q45.1469 218.36667 45.5844 219.24167Q46.0219 220.10104 46.0219 221.0698Q46.0219 223.0073 44.725025 224.16354Q43.42815 225.30417 41.17815 225.30417L40.912525 225.30417Q39.5219 225.30417 38.443775 224.80417Q37.36565 224.28854 36.7719 223.33542Q36.162525 222.3823 36.162525 221.08542Q36.162525 219.47604 37.131275 218.42917Q38.0844 217.36667 39.61565 217.28854L39.61565 218.83542Q38.693775 218.89792 38.100025 219.53854Q37.506275 220.16354 37.506275 221.08542Q37.506275 222.3198 38.3969 223.0073Q39.287525 223.67917 40.975025 223.67917L41.2719 223.67917Q42.92815 223.67917 43.818775 223.0073Q44.693775 222.33542 44.693775 221.0698ZM34.037525 213.67917L36.3344 213.67917L36.3344 211.89792L37.600025 211.89792L37.600025 213.67917L43.49065 213.67917Q44.068775 213.67917 44.350025 213.4448Q44.631275 213.21042 44.631275 212.6323Q44.631275 212.35104 44.537525 211.86667L45.850025 211.86667Q46.0219 212.5073 46.0219 213.10104Q46.0219 214.1948 45.36565 214.7573Q44.7094 215.30417 43.49065 215.30417L37.600025 215.30417L37.600025 217.03854L36.3344 217.03854L36.3344 215.30417L34.037525 215.30417L34.037525 213.67917ZM45.850025 208.11667L45.850025 209.74167L36.3344 209.74167L36.3344 208.11667L45.850025 208.11667ZM33.818775 209.8823Q33.42815 209.8823 33.162525 209.64792Q32.881275 209.39792 32.881275 208.92917Q32.881275 208.4448 33.162525 208.1948Q33.42815 207.9448 33.818775 207.9448Q34.2094 207.9448 34.475025 208.1948Q34.74065 208.4448 34.74065 208.92917Q34.74065 209.39792 34.475025 209.64792Q34.2094 209.8823 33.818775 209.8823ZM41.006275 206.3198Q39.61565 206.3198 38.506275 205.77292Q37.381275 205.21042 36.7719 204.24167Q36.162525 203.2573 36.162525 202.0073Q36.162525 200.05417 37.506275 198.86667Q38.850025 197.66354 41.0844 197.66354L41.193775 197.66354Q42.5844 197.66354 43.693775 198.1948Q44.787525 198.72604 45.412525 199.71042Q46.0219 200.6948 46.0219 201.97604Q46.0219 203.91354 44.67815 205.11667Q43.3344 206.3198 41.11565 206.3198L41.006275 206.3198ZM41.193775 204.67917Q42.787525 204.67917 43.74065 203.9448Q44.693775 203.21042 44.693775 201.97604Q44.693775 200.74167 43.725025 200.02292Q42.756275 199.28854 41.006275 199.28854Q39.443775 199.28854 38.475025 200.03854Q37.506275 200.77292 37.506275 202.0073Q37.506275 203.21042 38.4594 203.9448Q39.412525 204.67917 41.193775 204.67917ZM36.3344 194.35104L37.537525 194.28854Q36.162525 193.21042 36.162525 191.4448Q36.162525 188.42917 39.568775 188.41354L45.850025 188.41354L45.850025 190.03854L39.55315 190.03854Q38.5219 190.03854 38.037525 190.5073Q37.537525 190.96042 37.537525 191.9448Q37.537525 192.72604 37.9594 193.33542Q38.381275 193.92917 39.068775 194.2573L45.850025 194.2573L45.850025 195.8823L36.3344 195.8823L36.3344 194.35104Z" fill-rule="nonzero"/><path fill="#757575" d="M86.05312 154.12149L86.49062 149.87149L90.86562 149.87149L90.86562 150.87149L87.4125 150.87149L87.14687 153.19962Q87.7875 152.82462 88.58437 152.82462Q89.74062 152.82462 90.42812 153.60587Q91.11562 154.37149 91.11562 155.68399Q91.11562 156.99649 90.39687 157.76212Q89.69375 158.52774 88.4125 158.52774Q87.2875 158.52774 86.56875 157.90274Q85.85 157.26212 85.75625 156.15274L86.77187 156.15274Q86.88125 156.88712 87.30312 157.26212Q87.725 157.63712 88.4125 157.63712Q89.1625 157.63712 89.6 157.12149Q90.0375 156.60587 90.0375 155.69962Q90.0375 154.84024 89.56875 154.32462Q89.1 153.80899 88.31875 153.80899Q87.61562 153.80899 87.20937 154.10587L86.92812 154.34024L86.05312 154.12149ZM97.9125 154.76212Q97.9125 156.66837 97.25625 157.60587Q96.61562 158.52774 95.225 158.52774Q93.86562 158.52774 93.20937 157.62149Q92.55312 156.71524 92.52187 154.90274L92.52187 153.46524Q92.52187 151.57462 93.1625 150.66837Q93.81875 149.74649 95.20937 149.74649Q96.58437 149.74649 97.24062 150.63712Q97.89687 151.51212 97.9125 153.35587L97.9125 154.76212ZM96.81875 153.27774Q96.81875 151.90274 96.42812 151.27774Q96.05312 150.63712 95.20937 150.63712Q94.38125 150.63712 93.99062 151.27774Q93.61562 151.90274 93.61562 153.19962L93.61562 154.93399Q93.61562 156.30899 94.00625 156.98087Q94.4125 157.63712 95.225 157.63712Q96.02187 157.63712 96.4125 157.01212Q96.80312 156.38712 96.81875 155.05899L96.81875 153.27774ZM104.9125 154.76212Q104.9125 156.66837 104.25625 157.60587Q103.61562 158.52774 102.225 158.52774Q100.86562 158.52774 100.20937 157.62149Q99.55312 156.71524 99.52187 154.90274L99.52187 153.46524Q99.52187 151.57462 100.1625 150.66837Q100.81875 149.74649 102.20937 149.74649Q103.58437 149.74649 104.24062 150.63712Q104.89687 151.51212 104.9125 153.35587L104.9125 154.76212ZM103.81875 153.27774Q103.81875 151.90274 103.42812 151.27774Q103.05312 150.63712 102.20937 150.63712Q101.38125 150.63712 100.99062 151.27774Q100.61562 151.90274 100.61562 153.19962L100.61562 154.93399Q100.61562 156.30899 101.00625 156.98087Q101.4125 157.63712 102.225 157.63712Q103.02187 157.63712 103.4125 157.01212Q103.80312 156.38712 103.81875 155.05899L103.81875 153.27774Z" fill-rule="nonzero"/><path fill="#757575" d="M82.11562 279.61667L81.0375 279.61667L81.0375 272.39792L78.85 273.1948L78.85 272.21042L81.95937 271.03854L82.11562 271.03854L82.11562 279.61667ZM90.9125 275.97604Q90.9125 277.8823 90.25625 278.8198Q89.61562 279.74167 88.225 279.74167Q86.86562 279.74167 86.20937 278.83542Q85.55312 277.92917 85.52187 276.11667L85.52187 274.67917Q85.52187 272.78854 86.1625 271.8823Q86.81875 270.96042 88.20937 270.96042Q89.58437 270.96042 90.24062 271.85104Q90.89687 272.72604 90.9125 274.5698L90.9125 275.97604ZM89.81875 274.49167Q89.81875 273.11667 89.42812 272.49167Q89.05312 271.85104 88.20937 271.85104Q87.38125 271.85104 86.99062 272.49167Q86.61562 273.11667 86.61562 274.41354L86.61562 276.14792Q86.61562 277.52292 87.00625 278.1948Q87.4125 278.85104 88.225 278.85104Q89.02187 278.85104 89.4125 278.22604Q89.80312 277.60104 89.81875 276.27292L89.81875 274.49167ZM97.9125 275.97604Q97.9125 277.8823 97.25625 278.8198Q96.61562 279.74167 95.225 279.74167Q93.86562 279.74167 93.20937 278.83542Q92.55312 277.92917 92.52187 276.11667L92.52187 274.67917Q92.52187 272.78854 93.1625 271.8823Q93.81875 270.96042 95.20937 270.96042Q96.58437 270.96042 97.24062 271.85104Q97.89687 272.72604 97.9125 274.5698L97.9125 275.97604ZM96.81875 274.49167Q96.81875 273.11667 96.42812 272.49167Q96.05312 271.85104 95.20937 271.85104Q94.38125 271.85104 93.99062 272.49167Q93.61562 273.11667 93.61562 274.41354L93.61562 276.14792Q93.61562 277.52292 94.00625 278.1948Q94.4125 278.85104 95.225 278.85104Q96.02187 278.85104 96.4125 278.22604Q96.80312 277.60104 96.81875 276.27292L96.81875 274.49167ZM104.9125 275.97604Q104.9125 277.8823 104.25625 278.8198Q103.61562 279.74167 102.225 279.74167Q100.86562 279.74167 100.20937 278.83542Q99.55312 277.92917 99.52187 276.11667L99.52187 274.67917Q99.52187 272.78854 100.1625 271.8823Q100.81875 270.96042 102.20937 270.96042Q103.58437 270.96042 104.24062 271.85104Q104.89687 272.72604 104.9125 274.5698L104.9125 275.97604ZM103.81875 274.49167Q103.81875 273.11667 103.42812 272.49167Q103.05312 271.85104 102.20937 271.85104Q101.38125 271.85104 100.99062 272.49167Q100.61562 273.11667 100.61562 274.41354L100.61562 276.14792Q100.61562 277.52292 101.00625 278.1948Q101.4125 278.85104 102.225 278.85104Q103.02187 278.85104 103.4125 278.22604Q103.80312 277.60104 103.81875 276.27292L103.81875 274.49167Z" fill-rule="nonzero"/><path fill="#757575" d="M84.14687 400.8306L78.55312 400.8306L78.55312 400.04935L81.50625 396.7681Q82.1625 396.0181 82.4125 395.56497Q82.6625 395.09622 82.6625 394.59622Q82.6625 393.92435 82.25625 393.50247Q81.86562 393.06497 81.17812 393.06497Q80.38125 393.06497 79.92812 393.53372Q79.475 393.98685 79.475 394.81497L78.39687 394.81497Q78.39687 393.62747 79.14687 392.90872Q79.9125 392.17435 81.17812 392.17435Q82.38125 392.17435 83.06875 392.79935Q83.75625 393.42435 83.75625 394.47122Q83.75625 395.72122 82.14687 397.47122L79.86562 399.93997L84.14687 399.93997L84.14687 400.8306ZM90.9125 397.18997Q90.9125 399.09622 90.25625 400.03372Q89.61562 400.9556 88.225 400.9556Q86.86562 400.9556 86.20937 400.04935Q85.55312 399.1431 85.52187 397.3306L85.52187 395.8931Q85.52187 394.00247 86.1625 393.09622Q86.81875 392.17435 88.20937 392.17435Q89.58437 392.17435 90.24062 393.06497Q90.89687 393.93997 90.9125 395.78372L90.9125 397.18997ZM89.81875 395.7056Q89.81875 394.3306 89.42812 393.7056Q89.05312 393.06497 88.20937 393.06497Q87.38125 393.06497 86.99062 393.7056Q86.61562 394.3306 86.61562 395.62747L86.61562 397.36185Q86.61562 398.73685 87.00625 399.40872Q87.4125 400.06497 88.225 400.06497Q89.02187 400.06497 89.4125 399.43997Q89.80312 398.81497 89.81875 397.48685L89.81875 395.7056ZM97.9125 397.18997Q97.9125 399.09622 97.25625 400.03372Q96.61562 400.9556 95.225 400.9556Q93.86562 400.9556 93.20937 400.04935Q92.55312 399.1431 92.52187 397.3306L92.52187 395.8931Q92.52187 394.00247 93.1625 393.09622Q93.81875 392.17435 95.20937 392.17435Q96.58437 392.17435 97.24062 393.06497Q97.89687 393.93997 97.9125 395.78372L97.9125 397.18997ZM96.81875 395.7056Q96.81875 394.3306 96.42812 393.7056Q96.05312 393.06497 95.20937 393.06497Q94.38125 393.06497 93.99062 393.7056Q93.61562 394.3306 93.61562 395.62747L93.61562 397.36185Q93.61562 398.73685 94.00625 399.40872Q94.4125 400.06497 95.225 400.06497Q96.02187 400.06497 96.4125 399.43997Q96.80312 398.81497 96.81875 397.48685L96.81875 395.7056ZM104.9125 397.18997Q104.9125 399.09622 104.25625 400.03372Q103.61562 400.9556 102.225 400.9556Q100.86562 400.9556 100.20937 400.04935Q99.55312 399.1431 99.52187 397.3306L99.52187 395.8931Q99.52187 394.00247 100.1625 393.09622Q100.81875 392.17435 102.20937 392.17435Q103.58437 392.17435 104.24062 393.06497Q104.89687 393.93997 104.9125 395.78372L104.9125 397.18997ZM103.81875 395.7056Q103.81875 394.3306 103.42812 393.7056Q103.05312 393.06497 102.20937 393.06497Q101.38125 393.06497 100.99062 393.7056Q100.61562 394.3306 100.61562 395.62747L100.61562 397.36185Q100.61562 398.73685 101.00625 399.40872Q101.4125 400.06497 102.225 400.06497Q103.02187 400.06497 103.4125 399.43997Q103.80312 398.81497 103.81875 397.48685L103.81875 395.7056Z" fill-rule="nonzero"/><path fill="#757575" d="M114.4125 492.50937Q114.4125 494.41562 113.75625 495.35312Q113.11562 496.275 111.725 496.275Q110.36562 496.275 109.70937 495.36874Q109.05312 494.4625 109.02187 492.65L109.02187 491.2125Q109.02187 489.32187 109.6625 488.41562Q110.31875 487.49374 111.70937 487.49374Q113.08437 487.49374 113.74062 488.38437Q114.39687 489.25937 114.4125 491.10312L114.4125 492.50937ZM113.31875 491.025Q113.31875 489.65 112.92812 489.025Q112.55312 488.38437 111.70937 488.38437Q110.88125 488.38437 110.49062 489.025Q110.11562 489.65 110.11562 490.94687L110.11562 492.68124Q110.11562 494.05624 110.50625 494.72812Q110.9125 495.38437 111.725 495.38437Q112.52187 495.38437 112.9125 494.75937Q113.30312 494.13437 113.31875 492.80624L113.31875 491.025Z" fill-rule="nonzero"/><path fill="#757575" d="M228.22807 496.15L227.14995 496.15L227.14995 488.93124L224.96245 489.72812L224.96245 488.74374L228.07182 487.57187L228.22807 487.57187L228.22807 496.15ZM237.02495 492.50937Q237.02495 494.41562 236.3687 495.35312Q235.72807 496.275 234.33745 496.275Q232.97807 496.275 232.32182 495.36874Q231.66557 494.4625 231.63432 492.65L231.63432 491.2125Q231.63432 489.32187 232.27495 488.41562Q232.9312 487.49374 234.32182 487.49374Q235.69682 487.49374 236.35307 488.38437Q237.00932 489.25937 237.02495 491.10312L237.02495 492.50937ZM235.9312 491.025Q235.9312 489.65 235.54057 489.025Q235.16557 488.38437 234.32182 488.38437Q233.4937 488.38437 233.10307 489.025Q232.72807 489.65 232.72807 490.94687L232.72807 492.68124Q232.72807 494.05624 233.1187 494.72812Q233.52495 495.38437 234.33745 495.38437Q235.13432 495.38437 235.52495 494.75937Q235.91557 494.13437 235.9312 492.80624L235.9312 491.025ZM244.02495 492.50937Q244.02495 494.41562 243.3687 495.35312Q242.72807 496.275 241.33745 496.275Q239.97807 496.275 239.32182 495.36874Q238.66557 494.4625 238.63432 492.65L238.63432 491.2125Q238.63432 489.32187 239.27495 488.41562Q239.9312 487.49374 241.32182 487.49374Q242.69682 487.49374 243.35307 488.38437Q244.00932 489.25937 244.02495 491.10312L244.02495 492.50937ZM242.9312 491.025Q242.9312 489.65 242.54057 489.025Q242.16557 488.38437 241.32182 488.38437Q240.4937 488.38437 240.10307 489.025Q239.72807 489.65 239.72807 490.94687L239.72807 492.68124Q239.72807 494.05624 240.1187 494.72812Q240.52495 495.38437 241.33745 495.38437Q242.13432 495.38437 242.52495 494.75937Q242.91557 494.13437 242.9312 492.80624L242.9312 491.025ZM251.02495 492.50937Q251.02495 494.41562 250.3687 495.35312Q249.72807 496.275 248.33745 496.275Q246.97807 496.275 246.32182 495.36874Q245.66557 494.4625 245.63432 492.65L245.63432 491.2125Q245.63432 489.32187 246.27495 488.41562Q246.9312 487.49374 248.32182 487.49374Q249.69682 487.49374 250.35307 488.38437Q251.00932 489.25937 251.02495 491.10312L251.02495 492.50937ZM249.9312 491.025Q249.9312 489.65 249.54057 489.025Q249.16557 488.38437 248.32182 488.38437Q247.4937 488.38437 247.10307 489.025Q246.72807 489.65 246.72807 490.94687L246.72807 492.68124Q246.72807 494.05624 247.1187 494.72812Q247.52495 495.38437 248.33745 495.38437Q249.13432 495.38437 249.52495 494.75937Q249.91557 494.13437 249.9312 492.80624L249.9312 491.025Z" fill-rule="nonzero"/><path fill="#757575" d="M356.37177 496.15L350.778 496.15L350.778 495.36874L353.73114 492.0875Q354.3874 491.3375 354.6374 490.88437Q354.8874 490.41562 354.8874 489.91562Q354.8874 489.24374 354.48114 488.82187Q354.0905 488.38437 353.403 488.38437Q352.60614 488.38437 352.153 488.85312Q351.6999 489.30624 351.6999 490.13437L350.62177 490.13437Q350.62177 488.94687 351.37177 488.22812Q352.1374 487.49374 353.403 487.49374Q354.60614 487.49374 355.29364 488.11874Q355.98114 488.74374 355.98114 489.79062Q355.98114 491.04062 354.37177 492.79062L352.0905 495.25937L356.37177 495.25937L356.37177 496.15ZM363.1374 492.50937Q363.1374 494.41562 362.48114 495.35312Q361.8405 496.275 360.4499 496.275Q359.0905 496.275 358.43427 495.36874Q357.778 494.4625 357.74677 492.65L357.74677 491.2125Q357.74677 489.32187 358.3874 488.41562Q359.04364 487.49374 360.43427 487.49374Q361.80927 487.49374 362.4655 488.38437Q363.12177 489.25937 363.1374 491.10312L363.1374 492.50937ZM362.04364 491.025Q362.04364 489.65 361.653 489.025Q361.278 488.38437 360.43427 488.38437Q359.60614 488.38437 359.2155 489.025Q358.8405 489.65 358.8405 490.94687L358.8405 492.68124Q358.8405 494.05624 359.23114 494.72812Q359.6374 495.38437 360.4499 495.38437Q361.24677 495.38437 361.6374 494.75937Q362.028 494.13437 362.04364 492.80624L362.04364 491.025ZM370.1374 492.50937Q370.1374 494.41562 369.48114 495.35312Q368.8405 496.275 367.4499 496.275Q366.0905 496.275 365.43427 495.36874Q364.778 494.4625 364.74677 492.65L364.74677 491.2125Q364.74677 489.32187 365.3874 488.41562Q366.04364 487.49374 367.43427 487.49374Q368.80927 487.49374 369.4655 488.38437Q370.12177 489.25937 370.1374 491.10312L370.1374 492.50937ZM369.04364 491.025Q369.04364 489.65 368.653 489.025Q368.278 488.38437 367.43427 488.38437Q366.60614 488.38437 366.2155 489.025Q365.8405 489.65 365.8405 490.94687L365.8405 492.68124Q365.8405 494.05624 366.23114 494.72812Q366.6374 495.38437 367.4499 495.38437Q368.24677 495.38437 368.6374 494.75937Q369.028 494.13437 369.04364 492.80624L369.04364 491.025ZM377.1374 492.50937Q377.1374 494.41562 376.48114 495.35312Q375.8405 496.275 374.4499 496.275Q373.0905 496.275 372.43427 495.36874Q371.778 494.4625 371.74677 492.65L371.74677 491.2125Q371.74677 489.32187 372.3874 488.41562Q373.04364 487.49374 374.43427 487.49374Q375.80927 487.49374 376.4655 488.38437Q377.12177 489.25937 377.1374 491.10312L377.1374 492.50937ZM376.04364 491.025Q376.04364 489.65 375.653 489.025Q375.278 488.38437 374.43427 488.38437Q373.60614 488.38437 373.2155 489.025Q372.8405 489.65 372.8405 490.94687L372.8405 492.68124Q372.8405 494.05624 373.23114 494.72812Q373.6374 495.38437 374.4499 495.38437Q375.24677 495.38437 375.6374 494.75937Q376.028 494.13437 376.04364 492.80624L376.04364 491.025Z" fill-rule="nonzero"/><path fill="#757575" d="M478.4686 491.35312L479.2811 491.35312Q480.06235 491.3375 480.49985 490.94687Q480.93735 490.55624 480.93735 489.88437Q480.93735 488.38437 479.43735 488.38437Q478.73422 488.38437 478.31235 488.79062Q477.9061 489.19687 477.9061 489.85312L476.81235 489.85312Q476.81235 488.8375 477.54672 488.16562Q478.29672 487.49374 479.43735 487.49374Q480.64047 487.49374 481.32797 488.13437Q482.01547 488.775 482.01547 489.91562Q482.01547 490.47812 481.6561 490.99374Q481.29672 491.50937 480.67172 491.775Q481.37485 491.99374 481.74985 492.50937Q482.14047 493.025 482.14047 493.775Q482.14047 494.91562 481.39047 495.60312Q480.64047 496.275 479.43735 496.275Q478.24985 496.275 477.48422 495.61874Q476.73422 494.9625 476.73422 493.9L477.82797 493.9Q477.82797 494.57187 478.26547 494.97812Q478.70297 495.38437 479.45297 495.38437Q480.23422 495.38437 480.64047 494.97812Q481.06235 494.55624 481.06235 493.79062Q481.06235 493.05624 480.60922 492.66562Q480.1561 492.25937 479.2811 492.24374L478.4686 492.24374L478.4686 491.35312ZM489.24985 492.50937Q489.24985 494.41562 488.5936 495.35312Q487.95297 496.275 486.56235 496.275Q485.20297 496.275 484.54672 495.36874Q483.89047 494.4625 483.85922 492.65L483.85922 491.2125Q483.85922 489.32187 484.49985 488.41562Q485.1561 487.49374 486.54672 487.49374Q487.92172 487.49374 488.57797 488.38437Q489.23422 489.25937 489.24985 491.10312L489.24985 492.50937ZM488.1561 491.025Q488.1561 489.65 487.76547 489.025Q487.39047 488.38437 486.54672 488.38437Q485.7186 488.38437 485.32797 489.025Q484.95297 489.65 484.95297 490.94687L484.95297 492.68124Q484.95297 494.05624 485.3436 494.72812Q485.74985 495.38437 486.56235 495.38437Q487.35922 495.38437 487.74985 494.75937Q488.14047 494.13437 488.1561 492.80624L488.1561 491.025ZM496.24985 492.50937Q496.24985 494.41562 495.5936 495.35312Q494.95297 496.275 493.56235 496.275Q492.20297 496.275 491.54672 495.36874Q490.89047 494.4625 490.85922 492.65L490.85922 491.2125Q490.85922 489.32187 491.49985 488.41562Q492.1561 487.49374 493.54672 487.49374Q494.92172 487.49374 495.57797 488.38437Q496.23422 489.25937 496.24985 491.10312L496.24985 492.50937ZM495.1561 491.025Q495.1561 489.65 494.76547 489.025Q494.39047 488.38437 493.54672 488.38437Q492.7186 488.38437 492.32797 489.025Q491.95297 489.65 491.95297 490.94687L491.95297 492.68124Q491.95297 494.05624 492.3436 494.72812Q492.74985 495.38437 493.56235 495.38437Q494.35922 495.38437 494.74985 494.75937Q495.14047 494.13437 495.1561 492.80624L495.1561 491.025ZM503.24985 492.50937Q503.24985 494.41562 502.5936 495.35312Q501.95297 496.275 500.56235 496.275Q499.20297 496.275 498.54672 495.36874Q497.89047 494.4625 497.85922 492.65L497.85922 491.2125Q497.85922 489.32187 498.49985 488.41562Q499.1561 487.49374 500.54672 487.49374Q501.92172 487.49374 502.57797 488.38437Q503.23422 489.25937 503.24985 491.10312L503.24985 492.50937ZM502.1561 491.025Q502.1561 489.65 501.76547 489.025Q501.39047 488.38437 500.54672 488.38437Q499.7186 488.38437 499.32797 489.025Q498.95297 489.65 498.95297 490.94687L498.95297 492.68124Q498.95297 494.05624 499.3436 494.72812Q499.74985 495.38437 500.56235 495.38437Q501.35922 495.38437 501.74985 494.75937Q502.14047 494.13437 502.1561 492.80624L502.1561 491.025Z" fill-rule="nonzero"/><path fill="#757575" d="M607.58105 493.29062L608.76855 493.29062L608.76855 494.16562L607.58105 494.16562L607.58105 496.15L606.5029 496.15L606.5029 494.16562L602.6123 494.16562L602.6123 493.525L606.4248 487.61874L607.58105 487.61874L607.58105 493.29062ZM603.8467 493.29062L606.5029 493.29062L606.5029 489.10312L606.3623 489.3375L603.8467 493.29062ZM615.3623 492.50937Q615.3623 494.41562 614.70605 495.35312Q614.0654 496.275 612.6748 496.275Q611.3154 496.275 610.6592 495.36874Q610.0029 494.4625 609.9717 492.65L609.9717 491.2125Q609.9717 489.32187 610.6123 488.41562Q611.26855 487.49374 612.6592 487.49374Q614.0342 487.49374 614.6904 488.38437Q615.3467 489.25937 615.3623 491.10312L615.3623 492.50937ZM614.26855 491.025Q614.26855 489.65 613.8779 489.025Q613.5029 488.38437 612.6592 488.38437Q611.83105 488.38437 611.4404 489.025Q611.0654 489.65 611.0654 490.94687L611.0654 492.68124Q611.0654 494.05624 611.45605 494.72812Q611.8623 495.38437 612.6748 495.38437Q613.4717 495.38437 613.8623 494.75937Q614.2529 494.13437 614.26855 492.80624L614.26855 491.025ZM622.3623 492.50937Q622.3623 494.41562 621.70605 495.35312Q621.0654 496.275 619.6748 496.275Q618.3154 496.275 617.6592 495.36874Q617.0029 494.4625 616.9717 492.65L616.9717 491.2125Q616.9717 489.32187 617.6123 488.41562Q618.26855 487.49374 619.6592 487.49374Q621.0342 487.49374 621.6904 488.38437Q622.3467 489.25937 622.3623 491.10312L622.3623 492.50937ZM621.26855 491.025Q621.26855 489.65 620.8779 489.025Q620.5029 488.38437 619.6592 488.38437Q618.83105 488.38437 618.4404 489.025Q618.0654 489.65 618.0654 490.94687L618.0654 492.68124Q618.0654 494.05624 618.45605 494.72812Q618.8623 495.38437 619.6748 495.38437Q620.4717 495.38437 620.8623 494.75937Q621.2529 494.13437 621.26855 492.80624L621.26855 491.025ZM629.3623 492.50937Q629.3623 494.41562 628.70605 495.35312Q628.0654 496.275 626.6748 496.275Q625.3154 496.275 624.6592 495.36874Q624.0029 494.4625 623.9717 492.65L623.9717 491.2125Q623.9717 489.32187 624.6123 488.41562Q625.26855 487.49374 626.6592 487.49374Q628.0342 487.49374 628.6904 488.38437Q629.3467 489.25937 629.3623 491.10312L629.3623 492.50937ZM628.26855 491.025Q628.26855 489.65 627.8779 489.025Q627.5029 488.38437 626.6592 488.38437Q625.83105 488.38437 625.4404 489.025Q625.0654 489.65 625.0654 490.94687L625.0654 492.68124Q625.0654 494.05624 625.45605 494.72812Q625.8623 495.38437 626.6748 495.38437Q627.4717 495.38437 627.8623 494.75937Q628.2529 494.13437 628.26855 492.80624L628.26855 491.025Z" fill-rule="nonzero"/><path fill="#757575" d="M729.61536 491.86874L730.05286 487.61874L734.42786 487.61874L734.42786 488.61874L730.97473 488.61874L730.7091 490.94687Q731.34973 490.57187 732.1466 490.57187Q733.30286 490.57187 733.99036 491.35312Q734.67786 492.11874 734.67786 493.43124Q734.67786 494.74374 733.9591 495.50937Q733.256 496.275 731.97473 496.275Q730.84973 496.275 730.131 495.65Q729.41223 495.00937 729.3185 493.9L730.3341 493.9Q730.4435 494.63437 730.86536 495.00937Q731.28723 495.38437 731.97473 495.38437Q732.72473 495.38437 733.16223 494.86874Q733.59973 494.35312 733.59973 493.44687Q733.59973 492.5875 733.131 492.07187Q732.66223 491.55624 731.881 491.55624Q731.17786 491.55624 730.7716 491.85312L730.49036 492.0875L729.61536 491.86874ZM741.47473 492.50937Q741.47473 494.41562 740.8185 495.35312Q740.17786 496.275 738.78723 496.275Q737.42786 496.275 736.7716 495.36874Q736.11536 494.4625 736.0841 492.65L736.0841 491.2125Q736.0841 489.32187 736.72473 488.41562Q737.381 487.49374 738.7716 487.49374Q740.1466 487.49374 740.80286 488.38437Q741.4591 489.25937 741.47473 491.10312L741.47473 492.50937ZM740.381 491.025Q740.381 489.65 739.99036 489.025Q739.61536 488.38437 738.7716 488.38437Q737.9435 488.38437 737.55286 489.025Q737.17786 489.65 737.17786 490.94687L737.17786 492.68124Q737.17786 494.05624 737.5685 494.72812Q737.97473 495.38437 738.78723 495.38437Q739.5841 495.38437 739.97473 494.75937Q740.36536 494.13437 740.381 492.80624L740.381 491.025ZM748.47473 492.50937Q748.47473 494.41562 747.8185 495.35312Q747.17786 496.275 745.78723 496.275Q744.42786 496.275 743.7716 495.36874Q743.11536 494.4625 743.0841 492.65L743.0841 491.2125Q743.0841 489.32187 743.72473 488.41562Q744.381 487.49374 745.7716 487.49374Q747.1466 487.49374 747.80286 488.38437Q748.4591 489.25937 748.47473 491.10312L748.47473 492.50937ZM747.381 491.025Q747.381 489.65 746.99036 489.025Q746.61536 488.38437 745.7716 488.38437Q744.9435 488.38437 744.55286 489.025Q744.17786 489.65 744.17786 490.94687L744.17786 492.68124Q744.17786 494.05624 744.5685 494.72812Q744.97473 495.38437 745.78723 495.38437Q746.5841 495.38437 746.97473 494.75937Q747.36536 494.13437 747.381 492.80624L747.381 491.025ZM755.47473 492.50937Q755.47473 494.41562 754.8185 495.35312Q754.17786 496.275 752.78723 496.275Q751.42786 496.275 750.7716 495.36874Q750.11536 494.4625 750.0841 492.65L750.0841 491.2125Q750.0841 489.32187 750.72473 488.41562Q751.381 487.49374 752.7716 487.49374Q754.1466 487.49374 754.80286 488.38437Q755.4591 489.25937 755.47473 491.10312L755.47473 492.50937ZM754.381 491.025Q754.381 489.65 753.99036 489.025Q753.61536 488.38437 752.7716 488.38437Q751.9435 488.38437 751.55286 489.025Q751.17786 489.65 751.17786 490.94687L751.17786 492.68124Q751.17786 494.05624 751.5685 494.72812Q751.97473 495.38437 752.78723 495.38437Q753.5841 495.38437 753.97473 494.75937Q754.36536 494.13437 754.381 492.80624L754.381 491.025Z" fill-rule="nonzero"/><path fill="#e4517f" d="M774.15 74.583336C774.15 74.03105 774.5977 73.583336 775.15 73.583336L785.15 73.583336C785.7023 73.583336 786.15 74.03105 786.15 74.583336L786.15 84.583336C786.15 85.13562 785.7023 85.583336 785.15 85.583336L775.15 85.583336C774.5977 85.583336 774.15 85.13562 774.15 84.583336Z" fill-rule="nonzero"/><path fill="#757575" d="M801.6969 84.083336L800.5719 84.083336L800.5719 80.145836L796.2594 80.145836L796.2594 84.083336L795.1344 84.083336L795.1344 75.552086L796.2594 75.552086L796.2594 79.22396L800.5719 79.22396L800.5719 75.552086L801.6969 75.552086L801.6969 84.083336ZM810.04065 76.47396L807.29065 76.47396L807.29065 84.083336L806.1813 84.083336L806.1813 76.47396L803.4313 76.47396L803.4313 75.552086L810.04065 75.552086L810.04065 76.47396ZM817.04065 76.47396L814.29065 76.47396L814.29065 84.083336L813.1813 84.083336L813.1813 76.47396L810.4313 76.47396L810.4313 75.552086L817.04065 75.552086L817.04065 76.47396ZM819.2594 80.739586L819.2594 84.083336L818.1344 84.083336L818.1344 75.552086L821.29065 75.552086Q822.6813 75.552086 823.47815 76.270836Q824.275 76.97396 824.275 78.16146Q824.275 79.395836 823.4938 80.06771Q822.72815 80.739586 821.275 80.739586L819.2594 80.739586ZM819.2594 79.81771L821.29065 79.81771Q822.1969 79.81771 822.66565 79.395836Q823.15 78.97396 823.15 78.177086Q823.15 77.41146 822.66565 76.958336Q822.1969 76.489586 821.35315 76.47396L819.2594 76.47396L819.2594 79.81771Z" fill-rule="nonzero"/><path fill="#4b4df1" d="M774.15 99.583336C774.15 99.03105 774.5977 98.583336 775.15 98.583336L785.15 98.583336C785.7023 98.583336 786.15 99.03105 786.15 99.583336L786.15 109.583336C786.15 110.13562 785.7023 110.583336 785.15 110.583336L775.15 110.583336C774.5977 110.583336 774.15 110.13562 774.15 109.583336Z" fill-rule="nonzero"/><path fill="#757575" d="M797.65 105.28646Q796.2125 104.864586 795.54065 104.25521Q794.8844 103.645836 794.8844 102.75521Q794.8844 101.75521 795.6813 101.09896Q796.4938 100.427086 797.79065 100.427086Q798.66565 100.427086 799.35315 100.770836Q800.04065 101.114586 800.41565 101.708336Q800.8063 102.302086 800.8063 103.020836L799.66565 103.020836Q799.66565 102.239586 799.16565 101.802086Q798.6813 101.364586 797.79065 101.364586Q796.9625 101.364586 796.4938 101.739586Q796.025 102.09896 796.025 102.739586Q796.025 103.270836 796.4625 103.63021Q796.91565 103.989586 797.97815 104.28646Q799.04065 104.583336 799.6344 104.94271Q800.2438 105.302086 800.525 105.78646Q800.8219 106.270836 800.8219 106.91146Q800.8219 107.958336 800.0094 108.583336Q799.1969 109.208336 797.85315 109.208336Q796.9625 109.208336 796.1969 108.864586Q795.4469 108.520836 795.025 107.94271Q794.6188 107.34896 794.6188 106.614586L795.7438 106.614586Q795.7438 107.38021 796.3219 107.833336Q796.9 108.28646 797.85315 108.28646Q798.7438 108.28646 799.2125 107.927086Q799.6813 107.552086 799.6813 106.927086Q799.6813 106.302086 799.2438 105.958336Q798.8063 105.614586 797.65 105.28646ZM801.6813 105.84896Q801.6813 104.927086 802.04065 104.177086Q802.41565 103.427086 803.0719 103.03646Q803.72815 102.63021 804.5563 102.63021Q805.85315 102.63021 806.65 103.520836Q807.4625 104.41146 807.4625 105.91146L807.4625 105.989586Q807.4625 106.91146 807.10315 107.645836Q806.7438 108.38021 806.0875 108.802086Q805.4313 109.208336 804.5719 109.208336Q803.29065 109.208336 802.47815 108.31771Q801.6813 107.41146 801.6813 105.927086L801.6813 105.84896ZM802.775 105.989586Q802.775 107.03646 803.2594 107.677086Q803.7594 108.31771 804.5719 108.31771Q805.4 108.31771 805.8844 107.677086Q806.3688 107.020836 806.3688 105.84896Q806.3688 104.81771 805.8688 104.177086Q805.3844 103.520836 804.5563 103.520836Q803.7594 103.520836 803.2594 104.16146Q802.775 104.78646 802.775 105.989586ZM811.5094 108.31771Q812.0875 108.31771 812.525 107.97396Q812.9625 107.614586 813.0094 107.083336L814.04065 107.083336Q814.0094 107.63021 813.65 108.13021Q813.3063 108.614586 812.72815 108.91146Q812.16565 109.208336 811.5094 109.208336Q810.2125 109.208336 809.4469 108.34896Q808.6969 107.47396 808.6969 105.97396L808.6969 105.78646Q808.6969 104.864586 809.025 104.145836Q809.3688 103.427086 809.9938 103.03646Q810.6344 102.63021 811.5094 102.63021Q812.5719 102.63021 813.275 103.270836Q813.9938 103.895836 814.04065 104.927086L813.0094 104.927086Q812.9625 104.302086 812.54065 103.91146Q812.1188 103.520836 811.5094 103.520836Q810.6813 103.520836 810.22815 104.114586Q809.775 104.708336 809.775 105.833336L809.775 106.03646Q809.775 107.13021 810.22815 107.72396Q810.6813 108.31771 811.5094 108.31771ZM816.7438 106.145836L816.0563 106.84896L816.0563 109.083336L814.97815 109.083336L814.97815 100.083336L816.0563 100.083336L816.0563 105.520836L816.6344 104.833336L818.6188 102.739586L819.9313 102.739586L817.4625 105.395836L820.22815 109.083336L818.9469 109.083336L816.7438 106.145836ZM823.60315 109.208336Q822.3063 109.208336 821.4938 108.364586Q820.6969 107.50521 820.6969 106.083336L820.6969 105.895836Q820.6969 104.94271 821.0563 104.208336Q821.41565 103.458336 822.0563 103.052086Q822.7125 102.63021 823.4625 102.63021Q824.6969 102.63021 825.3844 103.44271Q826.0719 104.25521 826.0719 105.770836L826.0719 106.22396L821.775 106.22396Q821.8063 107.16146 822.3219 107.739586Q822.85315 108.31771 823.66565 108.31771Q824.22815 108.31771 824.6188 108.083336Q825.025 107.84896 825.3375 107.458336L825.9938 107.97396Q825.1969 109.208336 823.60315 109.208336ZM823.4625 103.520836Q822.8063 103.520836 822.35315 104.00521Q821.91565 104.47396 821.8219 105.333336L824.9938 105.333336L824.9938 105.25521Q824.9469 104.427086 824.54065 103.97396Q824.15 103.520836 823.4625 103.520836ZM828.4469 101.208336L828.4469 102.739586L829.6188 102.739586L829.6188 103.583336L828.4469 103.583336L828.4469 107.50521Q828.4469 107.895836 828.60315 108.083336Q828.7594 108.270836 829.1344 108.270836Q829.3219 108.270836 829.65 108.208336L829.65 109.083336Q829.22815 109.208336 828.8219 109.208336Q828.10315 109.208336 827.72815 108.770836Q827.35315 108.31771 827.35315 107.50521L827.35315 103.583336L826.1969 103.583336L826.1969 102.739586L827.35315 102.739586L827.35315 101.208336L828.4469 101.208336ZM830.9938 108.520836Q830.9938 108.239586 831.15 108.052086Q831.3219 107.864586 831.65 107.864586Q831.9938 107.864586 832.16565 108.052086Q832.3375 108.239586 832.3375 108.520836Q832.3375 108.78646 832.16565 108.97396Q831.9938 109.145836 831.65 109.145836Q831.3219 109.145836 831.15 108.97396Q830.9938 108.78646 830.9938 108.520836ZM835.15 109.083336L834.0719 109.083336L834.0719 102.739586L835.15 102.739586L835.15 109.083336ZM833.97815 101.06771Q833.97815 100.802086 834.1344 100.614586Q834.3063 100.427086 834.6188 100.427086Q834.9313 100.427086 835.0875 100.614586Q835.2594 100.802086 835.2594 101.06771Q835.2594 101.31771 835.0875 101.50521Q834.9313 101.677086 834.6188 101.677086Q834.3063 101.677086 834.1344 101.50521Q833.97815 101.31771 833.97815 101.06771ZM836.6813 105.84896Q836.6813 104.927086 837.04065 104.177086Q837.41565 103.427086 838.0719 103.03646Q838.72815 102.63021 839.5563 102.63021Q840.85315 102.63021 841.65 103.520836Q842.4625 104.41146 842.4625 105.91146L842.4625 105.989586Q842.4625 106.91146 842.10315 107.645836Q841.7438 108.38021 841.0875 108.802086Q840.4313 109.208336 839.5719 109.208336Q838.29065 109.208336 837.47815 108.31771Q836.6813 107.41146 836.6813 105.927086L836.6813 105.84896ZM837.775 105.989586Q837.775 107.03646 838.2594 107.677086Q838.7594 108.31771 839.5719 108.31771Q840.4 108.31771 840.8844 107.677086Q841.3688 107.020836 841.3688 105.84896Q841.3688 104.81771 840.8688 104.177086Q840.3844 103.520836 839.5563 103.520836Q838.7594 103.520836 838.2594 104.16146Q837.775 104.78646 837.775 105.989586Z" fill-rule="nonzero"/><path fill="#757575" d="M41.428123 47.85L39.5375 47.85L39.5375 41.271873L32.38125 41.271873L32.38125 47.85L30.50625 47.85L30.50625 33.63125L32.38125 33.63125L32.38125 39.740623L39.5375 39.740623L39.5375 33.63125L41.428123 33.63125L41.428123 47.85ZM54.31875 35.178123L49.75625 35.178123L49.75625 47.85L47.896873 47.85L47.896873 35.178123L43.334373 35.178123L43.334373 33.63125L54.31875 33.63125L54.31875 35.178123ZM66.31875 35.178123L61.75625 35.178123L61.75625 47.85L59.896873 47.85L59.896873 35.178123L55.334373 35.178123L55.334373 33.63125L66.31875 33.63125L66.31875 35.178123ZM70.38125 42.2875L70.38125 47.85L68.50625 47.85L68.50625 33.63125L73.74062 33.63125Q76.08437 33.63125 77.39687 34.81875Q78.725 36.00625 78.725 37.975Q78.725 40.053123 77.42812 41.178123Q76.13125 42.2875 73.725 42.2875L70.38125 42.2875ZM70.38125 40.75625L73.74062 40.75625Q75.25625 40.75625 76.05312 40.053123Q76.85 39.334373 76.85 37.990623Q76.85 36.725 76.05312 35.975Q75.25625 35.209373 73.85 35.178123L70.38125 35.178123L70.38125 40.75625ZM89.70937 45.396873L92.31875 37.2875L94.1625 37.2875L90.38125 47.85L89.00625 47.85L85.17812 37.2875L87.02187 37.2875L89.70937 45.396873ZM102.36562 45.053123Q102.36562 44.31875 101.81875 43.9125Q101.27187 43.50625 99.89687 43.209373Q98.52187 42.9125 97.70937 42.50625Q96.9125 42.1 96.52187 41.5375Q96.14687 40.959373 96.14687 40.178123Q96.14687 38.88125 97.24062 37.990623Q98.33437 37.084373 100.05312 37.084373Q101.85 37.084373 102.95937 38.021873Q104.08437 38.94375 104.08437 40.38125L102.25625 40.38125Q102.25625 39.646873 101.63125 39.115623Q101.00625 38.56875 100.05312 38.56875Q99.05312 38.56875 98.49062 39.00625Q97.94375 39.428123 97.94375 40.13125Q97.94375 40.771873 98.45937 41.115623Q98.975 41.44375 100.33437 41.75625Q101.69375 42.053123 102.52187 42.475Q103.36562 42.88125 103.77187 43.475Q104.17812 44.06875 104.17812 44.9125Q104.17812 46.334373 103.0375 47.19375Q101.9125 48.053123 100.1 48.053123Q98.83437 48.053123 97.85 47.6Q96.88125 47.146873 96.31875 46.35Q95.77187 45.5375 95.77187 44.6L97.58437 44.6Q97.63125 45.50625 98.30312 46.0375Q98.99062 46.56875 100.1 46.56875Q101.13125 46.56875 101.74062 46.1625Q102.36562 45.740623 102.36562 45.053123ZM115.69375 41.50625Q113.27187 40.81875 112.17812 39.81875Q111.08437 38.803123 111.08437 37.31875Q111.08437 35.63125 112.42812 34.5375Q113.77187 33.428123 115.9125 33.428123Q117.38125 33.428123 118.52187 34.00625Q119.67812 34.56875 120.30312 35.56875Q120.92812 36.553123 120.92812 37.740623L119.05312 37.740623Q119.05312 36.459373 118.225 35.725Q117.4125 34.975 115.9125 34.975Q114.52187 34.975 113.74062 35.584373Q112.975 36.19375 112.975 37.2875Q112.975 38.146873 113.70937 38.75625Q114.44375 39.35 116.20937 39.85Q117.99062 40.35 118.99062 40.959373Q119.99062 41.553123 120.475 42.35Q120.95937 43.146873 120.95937 44.240623Q120.95937 45.959373 119.61562 47.00625Q118.27187 48.053123 116.00625 48.053123Q114.55312 48.053123 113.27187 47.490623Q112.00625 46.928123 111.31875 45.959373Q110.63125 44.975 110.63125 43.725L112.52187 43.725Q112.52187 45.021873 113.475 45.771873Q114.42812 46.50625 116.00625 46.50625Q117.49062 46.50625 118.2875 45.9125Q119.08437 45.303123 119.08437 44.25625Q119.08437 43.209373 118.35 42.646873Q117.61562 42.06875 115.69375 41.50625ZM122.74062 42.475Q122.74062 40.9125 123.35 39.678123Q123.95937 38.428123 125.0375 37.75625Q126.13125 37.084373 127.5375 37.084373Q129.69376 37.084373 131.02188 38.584373Q132.36563 40.06875 132.36563 42.553123L132.36563 42.678123Q132.36563 44.225 131.77188 45.459373Q131.17813 46.678123 130.06876 47.365623Q128.975 48.053123 127.55312 48.053123Q125.4125 48.053123 124.06875 46.553123Q122.74062 45.053123 122.74062 42.6L122.74062 42.475ZM124.55312 42.678123Q124.55312 44.44375 125.36562 45.50625Q126.19375 46.56875 127.55312 46.56875Q128.92813 46.56875 129.74063 45.490623Q130.55313 44.4125 130.55313 42.475Q130.55313 40.725 129.725 39.646873Q128.89688 38.56875 127.5375 38.56875Q126.19375 38.56875 125.36562 39.63125Q124.55312 40.69375 124.55312 42.678123ZM138.45938 46.56875Q139.42813 46.56875 140.14688 45.990623Q140.86563 45.396873 140.94376 44.521873L142.6625 44.521873Q142.6 45.428123 142.02188 46.25625Q141.45938 47.06875 140.49063 47.56875Q139.5375 48.053123 138.45938 48.053123Q136.30313 48.053123 135.02188 46.615623Q133.75626 45.1625 133.75626 42.6625L133.75626 42.365623Q133.75626 40.81875 134.31876 39.615623Q134.88126 38.4125 135.94376 37.75625Q137.00626 37.084373 138.44376 37.084373Q140.225 37.084373 141.39688 38.146873Q142.58438 39.209373 142.6625 40.9125L140.94376 40.9125Q140.86563 39.896873 140.1625 39.240623Q139.475 38.56875 138.44376 38.56875Q137.06876 38.56875 136.30313 39.56875Q135.55313 40.553123 135.55313 42.428123L135.55313 42.771873Q135.55313 44.6 136.30313 45.584373Q137.05313 46.56875 138.45938 46.56875ZM147.1625 42.959373L146.0375 44.13125L146.0375 47.85L144.225 47.85L144.225 32.85L146.0375 32.85L146.0375 41.928123L147.00626 40.75625L150.2875 37.2875L152.49063 37.2875L148.38126 41.69375L152.975 47.85L150.85 47.85L147.1625 42.959373ZM158.6 48.053123Q156.45938 48.053123 155.1 46.646873Q153.75626 45.225 153.75626 42.865623L153.75626 42.521873Q153.75626 40.959373 154.35 39.725Q154.95938 38.490623 156.0375 37.7875Q157.11563 37.084373 158.38126 37.084373Q160.44376 37.084373 161.58438 38.44375Q162.725 39.803123 162.725 42.334373L162.725 43.084373L155.56876 43.084373Q155.6 44.646873 156.475 45.615623Q157.35 46.56875 158.69376 46.56875Q159.6625 46.56875 160.31876 46.178123Q160.99063 45.7875 161.49063 45.146873L162.58438 46.00625Q161.25626 48.053123 158.6 48.053123ZM158.38126 38.56875Q157.2875 38.56875 156.5375 39.365623Q155.80313 40.1625 155.63126 41.6L160.9125 41.6L160.9125 41.459373Q160.83438 40.084373 160.1625 39.334373Q159.50626 38.56875 158.38126 38.56875ZM167.6625 34.725L167.6625 37.2875L169.64688 37.2875L169.64688 38.678123L167.6625 38.678123L167.6625 45.225Q167.6625 45.865623 167.92813 46.19375Q168.19376 46.50625 168.83438 46.50625Q169.14688 46.50625 169.69376 46.38125L169.69376 47.85Q168.975 48.053123 168.30313 48.053123Q167.1 48.053123 166.475 47.31875Q165.86563 46.584373 165.86563 45.225L165.86563 38.678123L163.94376 38.678123L163.94376 37.2875L165.86563 37.2875L165.86563 34.725L167.6625 34.725ZM172.25626 46.896873Q172.25626 46.428123 172.5375 46.115623Q172.81876 45.803123 173.36563 45.803123Q173.92813 45.803123 174.20938 46.115623Q174.50626 46.428123 174.50626 46.896873Q174.50626 47.35 174.20938 47.6625Q173.92813 47.959373 173.36563 47.959373Q172.81876 47.959373 172.5375 47.6625Q172.25626 47.35 172.25626 46.896873ZM179.17813 47.85L177.38126 47.85L177.38126 37.2875L179.17813 37.2875L179.17813 47.85ZM177.225 34.475Q177.225 34.0375 177.49063 33.740623Q177.77188 33.428123 178.2875 33.428123Q178.81876 33.428123 179.08438 33.740623Q179.36563 34.0375 179.36563 34.475Q179.36563 34.9125 179.08438 35.209373Q178.81876 35.50625 178.2875 35.50625Q177.77188 35.50625 177.49063 35.209373Q177.225 34.9125 177.225 34.475ZM181.74063 42.475Q181.74063 40.9125 182.35 39.678123Q182.95938 38.428123 184.0375 37.75625Q185.13126 37.084373 186.5375 37.084373Q188.69376 37.084373 190.02188 38.584373Q191.36563 40.06875 191.36563 42.553123L191.36563 42.678123Q191.36563 44.225 190.77188 45.459373Q190.17813 46.678123 189.06876 47.365623Q187.975 48.053123 186.55313 48.053123Q184.4125 48.053123 183.06876 46.553123Q181.74063 45.053123 181.74063 42.6L181.74063 42.475ZM183.55313 42.678123Q183.55313 44.44375 184.36563 45.50625Q185.19376 46.56875 186.55313 46.56875Q187.92813 46.56875 188.74063 45.490623Q189.55313 44.4125 189.55313 42.475Q189.55313 40.725 188.725 39.646873Q187.89688 38.56875 186.5375 38.56875Q185.19376 38.56875 184.36563 39.63125Q183.55313 40.69375 183.55313 42.678123Z" fill-rule="nonzero"/></svg>